<svg width="1440" height="309" viewBox="0 0 1440 309" fill="none" xmlns="http://www.w3.org/2000/svg">
<g clip-path="url(#clip0_135_79821)">
<rect width="1440" height="309" transform="matrix(-1 0 0 1 1440 0)" fill="#255BA1"/>
<g style="mix-blend-mode:soft-light">
<g filter="url(#filter0_d_135_79821)">
<circle cx="372.5" cy="372.5" r="372.5" transform="matrix(-1 0 0 1 1804 -382)" fill="white" fill-opacity="0.1" shape-rendering="crispEdges"/>
</g>
<g filter="url(#filter1_d_135_79821)">
<circle cx="266.405" cy="266.405" r="266.405" transform="matrix(-1 0 0 1 1697.91 -275.891)" fill="white" fill-opacity="0.2" shape-rendering="crispEdges"/>
</g>
<g filter="url(#filter2_d_135_79821)">
<circle cx="165.18" cy="165.18" r="165.18" transform="matrix(-1 0 0 1 1596.68 -174.672)" fill="white" fill-opacity="0.25" shape-rendering="crispEdges"/>
</g>
<g filter="url(#filter3_d_135_79821)">
<circle cx="74.0336" cy="74.0336" r="74.0336" transform="matrix(-1 0 0 1 1505.54 -83.5391)" fill="white" fill-opacity="0.4" shape-rendering="crispEdges"/>
</g>
</g>
<g style="mix-blend-mode:screen" opacity="0.4">
<mask id="mask0_135_79821" style="mask-type:alpha" maskUnits="userSpaceOnUse" x="-46" y="-4" width="181" height="75">
<path d="M-35.6768 1.1616C-35.6768 4.01227 -37.9877 6.32319 -40.8384 6.32319C-43.6891 6.32319 -46 4.01227 -46 1.1616C-46 -1.68907 -43.6891 -4 -40.8384 -4C-37.9877 -4 -35.6768 -1.68907 -35.6768 1.1616Z" fill="#DE702C"/>
<path d="M-14.3422 1.1616C-14.3422 4.01227 -16.6531 6.32319 -19.5038 6.32319C-22.3545 6.32319 -24.6654 4.01227 -24.6654 1.1616C-24.6654 -1.68907 -22.3545 -4 -19.5038 -4C-16.6531 -4 -14.3422 -1.68907 -14.3422 1.1616Z" fill="#DE702C"/>
<path d="M6.9924 1.1616C6.9924 4.01227 4.68147 6.32319 1.8308 6.32319C-1.01987 6.32319 -3.3308 4.01227 -3.3308 1.1616C-3.3308 -1.68907 -1.01987 -4 1.8308 -4C4.68147 -4 6.9924 -1.68907 6.9924 1.1616Z" fill="#DE702C"/>
<path d="M28.327 1.1616C28.327 4.01227 26.0161 6.32319 23.1654 6.32319C20.3147 6.32319 18.0038 4.01227 18.0038 1.1616C18.0038 -1.68907 20.3147 -4 23.1654 -4C26.0161 -4 28.327 -1.68907 28.327 1.1616Z" fill="#DE702C"/>
<path d="M49.6616 1.1616C49.6616 4.01227 47.3507 6.32319 44.5 6.32319C41.6493 6.32319 39.3384 4.01227 39.3384 1.1616C39.3384 -1.68907 41.6493 -4 44.5 -4C47.3507 -4 49.6616 -1.68907 49.6616 1.1616Z" fill="#DE702C"/>
<path d="M70.9962 1.1616C70.9962 4.01227 68.6853 6.32319 65.8346 6.32319C62.9839 6.32319 60.673 4.01227 60.673 1.1616C60.673 -1.68907 62.9839 -4 65.8346 -4C68.6853 -4 70.9962 -1.68907 70.9962 1.1616Z" fill="#DE702C"/>
<path d="M92.3308 1.1616C92.3308 4.01227 90.0199 6.32319 87.1692 6.32319C84.3185 6.32319 82.0076 4.01227 82.0076 1.1616C82.0076 -1.68907 84.3185 -4 87.1692 -4C90.0199 -4 92.3308 -1.68907 92.3308 1.1616Z" fill="#DE702C"/>
<path d="M113.665 1.1616C113.665 4.01227 111.354 6.32319 108.504 6.32319C105.653 6.32319 103.342 4.01227 103.342 1.1616C103.342 -1.68907 105.653 -4 108.504 -4C111.354 -4 113.665 -1.68907 113.665 1.1616Z" fill="#DE702C"/>
<path d="M135 1.1616C135 4.01227 132.689 6.32319 129.838 6.32319C126.988 6.32319 124.677 4.01227 124.677 1.1616C124.677 -1.68907 126.988 -4 129.838 -4C132.689 -4 135 -1.68907 135 1.1616Z" fill="#DE702C"/>
<path d="M-35.6768 22.4962C-35.6768 25.3469 -37.9877 27.6578 -40.8384 27.6578C-43.6891 27.6578 -46 25.3469 -46 22.4962C-46 19.6455 -43.6891 17.3346 -40.8384 17.3346C-37.9877 17.3346 -35.6768 19.6455 -35.6768 22.4962Z" fill="#DE702C"/>
<path d="M-14.3422 22.4962C-14.3422 25.3469 -16.6531 27.6578 -19.5038 27.6578C-22.3545 27.6578 -24.6654 25.3469 -24.6654 22.4962C-24.6654 19.6455 -22.3545 17.3346 -19.5038 17.3346C-16.6531 17.3346 -14.3422 19.6455 -14.3422 22.4962Z" fill="#DE702C"/>
<path d="M6.9924 22.4962C6.9924 25.3469 4.68147 27.6578 1.8308 27.6578C-1.01987 27.6578 -3.3308 25.3469 -3.3308 22.4962C-3.3308 19.6455 -1.01987 17.3346 1.8308 17.3346C4.68147 17.3346 6.9924 19.6455 6.9924 22.4962Z" fill="#DE702C"/>
<path d="M28.327 22.4962C28.327 25.3469 26.0161 27.6578 23.1654 27.6578C20.3147 27.6578 18.0038 25.3469 18.0038 22.4962C18.0038 19.6455 20.3147 17.3346 23.1654 17.3346C26.0161 17.3346 28.327 19.6455 28.327 22.4962Z" fill="#DE702C"/>
<path d="M49.6616 22.4962C49.6616 25.3469 47.3507 27.6578 44.5 27.6578C41.6493 27.6578 39.3384 25.3469 39.3384 22.4962C39.3384 19.6455 41.6493 17.3346 44.5 17.3346C47.3507 17.3346 49.6616 19.6455 49.6616 22.4962Z" fill="#DE702C"/>
<path d="M70.9962 22.4962C70.9962 25.3469 68.6853 27.6578 65.8346 27.6578C62.9839 27.6578 60.673 25.3469 60.673 22.4962C60.673 19.6455 62.9839 17.3346 65.8346 17.3346C68.6853 17.3346 70.9962 19.6455 70.9962 22.4962Z" fill="#DE702C"/>
<path d="M92.3308 22.4962C92.3308 25.3469 90.0199 27.6578 87.1692 27.6578C84.3185 27.6578 82.0076 25.3469 82.0076 22.4962C82.0076 19.6455 84.3185 17.3346 87.1692 17.3346C90.0199 17.3346 92.3308 19.6455 92.3308 22.4962Z" fill="#DE702C"/>
<path d="M113.665 22.4962C113.665 25.3469 111.354 27.6578 108.504 27.6578C105.653 27.6578 103.342 25.3469 103.342 22.4962C103.342 19.6455 105.653 17.3346 108.504 17.3346C111.354 17.3346 113.665 19.6455 113.665 22.4962Z" fill="#DE702C"/>
<path d="M135 22.4962C135 25.3469 132.689 27.6578 129.838 27.6578C126.988 27.6578 124.677 25.3469 124.677 22.4962C124.677 19.6455 126.988 17.3346 129.838 17.3346C132.689 17.3346 135 19.6455 135 22.4962Z" fill="#DE702C"/>
<path d="M-35.6768 43.8308C-35.6768 46.6815 -37.9877 48.9924 -40.8384 48.9924C-43.6891 48.9924 -46 46.6815 -46 43.8308C-46 40.9801 -43.6891 38.6692 -40.8384 38.6692C-37.9877 38.6692 -35.6768 40.9801 -35.6768 43.8308Z" fill="#DE702C"/>
<path d="M-14.3422 43.8308C-14.3422 46.6815 -16.6531 48.9924 -19.5038 48.9924C-22.3545 48.9924 -24.6654 46.6815 -24.6654 43.8308C-24.6654 40.9801 -22.3545 38.6692 -19.5038 38.6692C-16.6531 38.6692 -14.3422 40.9801 -14.3422 43.8308Z" fill="#DE702C"/>
<path d="M6.9924 43.8308C6.9924 46.6815 4.68147 48.9924 1.8308 48.9924C-1.01987 48.9924 -3.3308 46.6815 -3.3308 43.8308C-3.3308 40.9801 -1.01987 38.6692 1.8308 38.6692C4.68147 38.6692 6.9924 40.9801 6.9924 43.8308Z" fill="#DE702C"/>
<path d="M28.327 43.8308C28.327 46.6815 26.0161 48.9924 23.1654 48.9924C20.3147 48.9924 18.0038 46.6815 18.0038 43.8308C18.0038 40.9801 20.3147 38.6692 23.1654 38.6692C26.0161 38.6692 28.327 40.9801 28.327 43.8308Z" fill="#DE702C"/>
<path d="M49.6616 43.8308C49.6616 46.6815 47.3507 48.9924 44.5 48.9924C41.6493 48.9924 39.3384 46.6815 39.3384 43.8308C39.3384 40.9801 41.6493 38.6692 44.5 38.6692C47.3507 38.6692 49.6616 40.9801 49.6616 43.8308Z" fill="#DE702C"/>
<path d="M70.9962 43.8308C70.9962 46.6815 68.6853 48.9924 65.8346 48.9924C62.9839 48.9924 60.673 46.6815 60.673 43.8308C60.673 40.9801 62.9839 38.6692 65.8346 38.6692C68.6853 38.6692 70.9962 40.9801 70.9962 43.8308Z" fill="#DE702C"/>
<path d="M92.3308 43.8308C92.3308 46.6815 90.0199 48.9924 87.1692 48.9924C84.3185 48.9924 82.0076 46.6815 82.0076 43.8308C82.0076 40.9801 84.3185 38.6692 87.1692 38.6692C90.0199 38.6692 92.3308 40.9801 92.3308 43.8308Z" fill="#DE702C"/>
<path d="M113.665 43.8308C113.665 46.6815 111.354 48.9924 108.504 48.9924C105.653 48.9924 103.342 46.6815 103.342 43.8308C103.342 40.9801 105.653 38.6692 108.504 38.6692C111.354 38.6692 113.665 40.9801 113.665 43.8308Z" fill="#DE702C"/>
<path d="M135 43.8308C135 46.6815 132.689 48.9924 129.838 48.9924C126.988 48.9924 124.677 46.6815 124.677 43.8308C124.677 40.9801 126.988 38.6692 129.838 38.6692C132.689 38.6692 135 40.9801 135 43.8308Z" fill="#DE702C"/>
<path d="M-35.6768 65.1654C-35.6768 68.0161 -37.9877 70.327 -40.8384 70.327C-43.6891 70.327 -46 68.0161 -46 65.1654C-46 62.3147 -43.6891 60.0038 -40.8384 60.0038C-37.9877 60.0038 -35.6768 62.3147 -35.6768 65.1654Z" fill="#DE702C"/>
<path d="M-14.3422 65.1654C-14.3422 68.0161 -16.6531 70.327 -19.5038 70.327C-22.3545 70.327 -24.6654 68.0161 -24.6654 65.1654C-24.6654 62.3147 -22.3545 60.0038 -19.5038 60.0038C-16.6531 60.0038 -14.3422 62.3147 -14.3422 65.1654Z" fill="#DE702C"/>
<path d="M6.9924 65.1654C6.9924 68.0161 4.68147 70.327 1.8308 70.327C-1.01987 70.327 -3.3308 68.0161 -3.3308 65.1654C-3.3308 62.3147 -1.01987 60.0038 1.8308 60.0038C4.68147 60.0038 6.9924 62.3147 6.9924 65.1654Z" fill="#DE702C"/>
<path d="M28.327 65.1654C28.327 68.0161 26.0161 70.327 23.1654 70.327C20.3147 70.327 18.0038 68.0161 18.0038 65.1654C18.0038 62.3147 20.3147 60.0038 23.1654 60.0038C26.0161 60.0038 28.327 62.3147 28.327 65.1654Z" fill="#DE702C"/>
<path d="M49.6616 65.1654C49.6616 68.0161 47.3507 70.327 44.5 70.327C41.6493 70.327 39.3384 68.0161 39.3384 65.1654C39.3384 62.3147 41.6493 60.0038 44.5 60.0038C47.3507 60.0038 49.6616 62.3147 49.6616 65.1654Z" fill="#DE702C"/>
<path d="M70.9962 65.1654C70.9962 68.0161 68.6853 70.327 65.8346 70.327C62.9839 70.327 60.673 68.0161 60.673 65.1654C60.673 62.3147 62.9839 60.0038 65.8346 60.0038C68.6853 60.0038 70.9962 62.3147 70.9962 65.1654Z" fill="#DE702C"/>
<path d="M92.3308 65.1654C92.3308 68.0161 90.0199 70.327 87.1692 70.327C84.3185 70.327 82.0076 68.0161 82.0076 65.1654C82.0076 62.3147 84.3185 60.0038 87.1692 60.0038C90.0199 60.0038 92.3308 62.3147 92.3308 65.1654Z" fill="#DE702C"/>
<path d="M113.665 65.1654C113.665 68.0161 111.354 70.327 108.504 70.327C105.653 70.327 103.342 68.0161 103.342 65.1654C103.342 62.3147 105.653 60.0038 108.504 60.0038C111.354 60.0038 113.665 62.3147 113.665 65.1654Z" fill="#DE702C"/>
<path d="M135 65.1654C135 68.0161 132.689 70.327 129.838 70.327C126.988 70.327 124.677 68.0161 124.677 65.1654C124.677 62.3147 126.988 60.0038 129.838 60.0038C132.689 60.0038 135 62.3147 135 65.1654Z" fill="#DE702C"/>
</mask>
<g mask="url(#mask0_135_79821)">
<rect x="-49.4414" y="-35.6562" width="189.259" height="143.837" fill="#042B5E"/>
</g>
</g>
<g style="mix-blend-mode:screen" opacity="0.4">
<mask id="mask1_135_79821" style="mask-type:alpha" maskUnits="userSpaceOnUse" x="-46" y="82" width="181" height="75">
<path d="M-35.6768 87.1616C-35.6768 90.0123 -37.9877 92.3232 -40.8384 92.3232C-43.6891 92.3232 -46 90.0123 -46 87.1616C-46 84.3109 -43.6891 82 -40.8384 82C-37.9877 82 -35.6768 84.3109 -35.6768 87.1616Z" fill="#DE702C"/>
<path d="M-14.3422 87.1616C-14.3422 90.0123 -16.6531 92.3232 -19.5038 92.3232C-22.3545 92.3232 -24.6654 90.0123 -24.6654 87.1616C-24.6654 84.3109 -22.3545 82 -19.5038 82C-16.6531 82 -14.3422 84.3109 -14.3422 87.1616Z" fill="#DE702C"/>
<path d="M6.9924 87.1616C6.9924 90.0123 4.68147 92.3232 1.8308 92.3232C-1.01987 92.3232 -3.3308 90.0123 -3.3308 87.1616C-3.3308 84.3109 -1.01987 82 1.8308 82C4.68147 82 6.9924 84.3109 6.9924 87.1616Z" fill="#DE702C"/>
<path d="M28.327 87.1616C28.327 90.0123 26.0161 92.3232 23.1654 92.3232C20.3147 92.3232 18.0038 90.0123 18.0038 87.1616C18.0038 84.3109 20.3147 82 23.1654 82C26.0161 82 28.327 84.3109 28.327 87.1616Z" fill="#DE702C"/>
<path d="M49.6616 87.1616C49.6616 90.0123 47.3507 92.3232 44.5 92.3232C41.6493 92.3232 39.3384 90.0123 39.3384 87.1616C39.3384 84.3109 41.6493 82 44.5 82C47.3507 82 49.6616 84.3109 49.6616 87.1616Z" fill="#DE702C"/>
<path d="M70.9962 87.1616C70.9962 90.0123 68.6853 92.3232 65.8346 92.3232C62.9839 92.3232 60.673 90.0123 60.673 87.1616C60.673 84.3109 62.9839 82 65.8346 82C68.6853 82 70.9962 84.3109 70.9962 87.1616Z" fill="#DE702C"/>
<path d="M92.3308 87.1616C92.3308 90.0123 90.0199 92.3232 87.1692 92.3232C84.3185 92.3232 82.0076 90.0123 82.0076 87.1616C82.0076 84.3109 84.3185 82 87.1692 82C90.0199 82 92.3308 84.3109 92.3308 87.1616Z" fill="#DE702C"/>
<path d="M113.665 87.1616C113.665 90.0123 111.354 92.3232 108.504 92.3232C105.653 92.3232 103.342 90.0123 103.342 87.1616C103.342 84.3109 105.653 82 108.504 82C111.354 82 113.665 84.3109 113.665 87.1616Z" fill="#DE702C"/>
<path d="M135 87.1616C135 90.0123 132.689 92.3232 129.838 92.3232C126.988 92.3232 124.677 90.0123 124.677 87.1616C124.677 84.3109 126.988 82 129.838 82C132.689 82 135 84.3109 135 87.1616Z" fill="#DE702C"/>
<path d="M-35.6768 108.496C-35.6768 111.347 -37.9877 113.658 -40.8384 113.658C-43.6891 113.658 -46 111.347 -46 108.496C-46 105.646 -43.6891 103.335 -40.8384 103.335C-37.9877 103.335 -35.6768 105.646 -35.6768 108.496Z" fill="#DE702C"/>
<path d="M-14.3422 108.496C-14.3422 111.347 -16.6531 113.658 -19.5038 113.658C-22.3545 113.658 -24.6654 111.347 -24.6654 108.496C-24.6654 105.646 -22.3545 103.335 -19.5038 103.335C-16.6531 103.335 -14.3422 105.646 -14.3422 108.496Z" fill="#DE702C"/>
<path d="M6.9924 108.496C6.9924 111.347 4.68147 113.658 1.8308 113.658C-1.01987 113.658 -3.3308 111.347 -3.3308 108.496C-3.3308 105.646 -1.01987 103.335 1.8308 103.335C4.68147 103.335 6.9924 105.646 6.9924 108.496Z" fill="#DE702C"/>
<path d="M28.327 108.496C28.327 111.347 26.0161 113.658 23.1654 113.658C20.3147 113.658 18.0038 111.347 18.0038 108.496C18.0038 105.646 20.3147 103.335 23.1654 103.335C26.0161 103.335 28.327 105.646 28.327 108.496Z" fill="#DE702C"/>
<path d="M49.6616 108.496C49.6616 111.347 47.3507 113.658 44.5 113.658C41.6493 113.658 39.3384 111.347 39.3384 108.496C39.3384 105.646 41.6493 103.335 44.5 103.335C47.3507 103.335 49.6616 105.646 49.6616 108.496Z" fill="#DE702C"/>
<path d="M70.9962 108.496C70.9962 111.347 68.6853 113.658 65.8346 113.658C62.9839 113.658 60.673 111.347 60.673 108.496C60.673 105.646 62.9839 103.335 65.8346 103.335C68.6853 103.335 70.9962 105.646 70.9962 108.496Z" fill="#DE702C"/>
<path d="M92.3308 108.496C92.3308 111.347 90.0199 113.658 87.1692 113.658C84.3185 113.658 82.0076 111.347 82.0076 108.496C82.0076 105.646 84.3185 103.335 87.1692 103.335C90.0199 103.335 92.3308 105.646 92.3308 108.496Z" fill="#DE702C"/>
<path d="M113.665 108.496C113.665 111.347 111.354 113.658 108.504 113.658C105.653 113.658 103.342 111.347 103.342 108.496C103.342 105.646 105.653 103.335 108.504 103.335C111.354 103.335 113.665 105.646 113.665 108.496Z" fill="#DE702C"/>
<path d="M135 108.496C135 111.347 132.689 113.658 129.838 113.658C126.988 113.658 124.677 111.347 124.677 108.496C124.677 105.646 126.988 103.335 129.838 103.335C132.689 103.335 135 105.646 135 108.496Z" fill="#DE702C"/>
<path d="M-35.6768 129.831C-35.6768 132.681 -37.9877 134.992 -40.8384 134.992C-43.6891 134.992 -46 132.681 -46 129.831C-46 126.98 -43.6891 124.669 -40.8384 124.669C-37.9877 124.669 -35.6768 126.98 -35.6768 129.831Z" fill="#DE702C"/>
<path d="M-14.3422 129.831C-14.3422 132.681 -16.6531 134.992 -19.5038 134.992C-22.3545 134.992 -24.6654 132.681 -24.6654 129.831C-24.6654 126.98 -22.3545 124.669 -19.5038 124.669C-16.6531 124.669 -14.3422 126.98 -14.3422 129.831Z" fill="#DE702C"/>
<path d="M6.9924 129.831C6.9924 132.681 4.68147 134.992 1.8308 134.992C-1.01987 134.992 -3.3308 132.681 -3.3308 129.831C-3.3308 126.98 -1.01987 124.669 1.8308 124.669C4.68147 124.669 6.9924 126.98 6.9924 129.831Z" fill="#DE702C"/>
<path d="M28.327 129.831C28.327 132.681 26.0161 134.992 23.1654 134.992C20.3147 134.992 18.0038 132.681 18.0038 129.831C18.0038 126.98 20.3147 124.669 23.1654 124.669C26.0161 124.669 28.327 126.98 28.327 129.831Z" fill="#DE702C"/>
<path d="M49.6616 129.831C49.6616 132.681 47.3507 134.992 44.5 134.992C41.6493 134.992 39.3384 132.681 39.3384 129.831C39.3384 126.98 41.6493 124.669 44.5 124.669C47.3507 124.669 49.6616 126.98 49.6616 129.831Z" fill="#DE702C"/>
<path d="M70.9962 129.831C70.9962 132.681 68.6853 134.992 65.8346 134.992C62.9839 134.992 60.673 132.681 60.673 129.831C60.673 126.98 62.9839 124.669 65.8346 124.669C68.6853 124.669 70.9962 126.98 70.9962 129.831Z" fill="#DE702C"/>
<path d="M92.3308 129.831C92.3308 132.681 90.0199 134.992 87.1692 134.992C84.3185 134.992 82.0076 132.681 82.0076 129.831C82.0076 126.98 84.3185 124.669 87.1692 124.669C90.0199 124.669 92.3308 126.98 92.3308 129.831Z" fill="#DE702C"/>
<path d="M113.665 129.831C113.665 132.681 111.354 134.992 108.504 134.992C105.653 134.992 103.342 132.681 103.342 129.831C103.342 126.98 105.653 124.669 108.504 124.669C111.354 124.669 113.665 126.98 113.665 129.831Z" fill="#DE702C"/>
<path d="M135 129.831C135 132.681 132.689 134.992 129.838 134.992C126.988 134.992 124.677 132.681 124.677 129.831C124.677 126.98 126.988 124.669 129.838 124.669C132.689 124.669 135 126.98 135 129.831Z" fill="#DE702C"/>
<path d="M-35.6768 151.165C-35.6768 154.016 -37.9877 156.327 -40.8384 156.327C-43.6891 156.327 -46 154.016 -46 151.165C-46 148.315 -43.6891 146.004 -40.8384 146.004C-37.9877 146.004 -35.6768 148.315 -35.6768 151.165Z" fill="#DE702C"/>
<path d="M-14.3422 151.165C-14.3422 154.016 -16.6531 156.327 -19.5038 156.327C-22.3545 156.327 -24.6654 154.016 -24.6654 151.165C-24.6654 148.315 -22.3545 146.004 -19.5038 146.004C-16.6531 146.004 -14.3422 148.315 -14.3422 151.165Z" fill="#DE702C"/>
<path d="M6.9924 151.165C6.9924 154.016 4.68147 156.327 1.8308 156.327C-1.01987 156.327 -3.3308 154.016 -3.3308 151.165C-3.3308 148.315 -1.01987 146.004 1.8308 146.004C4.68147 146.004 6.9924 148.315 6.9924 151.165Z" fill="#DE702C"/>
<path d="M28.327 151.165C28.327 154.016 26.0161 156.327 23.1654 156.327C20.3147 156.327 18.0038 154.016 18.0038 151.165C18.0038 148.315 20.3147 146.004 23.1654 146.004C26.0161 146.004 28.327 148.315 28.327 151.165Z" fill="#DE702C"/>
<path d="M49.6616 151.165C49.6616 154.016 47.3507 156.327 44.5 156.327C41.6493 156.327 39.3384 154.016 39.3384 151.165C39.3384 148.315 41.6493 146.004 44.5 146.004C47.3507 146.004 49.6616 148.315 49.6616 151.165Z" fill="#DE702C"/>
<path d="M70.9962 151.165C70.9962 154.016 68.6853 156.327 65.8346 156.327C62.9839 156.327 60.673 154.016 60.673 151.165C60.673 148.315 62.9839 146.004 65.8346 146.004C68.6853 146.004 70.9962 148.315 70.9962 151.165Z" fill="#DE702C"/>
<path d="M92.3308 151.165C92.3308 154.016 90.0199 156.327 87.1692 156.327C84.3185 156.327 82.0076 154.016 82.0076 151.165C82.0076 148.315 84.3185 146.004 87.1692 146.004C90.0199 146.004 92.3308 148.315 92.3308 151.165Z" fill="#DE702C"/>
<path d="M113.665 151.165C113.665 154.016 111.354 156.327 108.504 156.327C105.653 156.327 103.342 154.016 103.342 151.165C103.342 148.315 105.653 146.004 108.504 146.004C111.354 146.004 113.665 148.315 113.665 151.165Z" fill="#DE702C"/>
<path d="M135 151.165C135 154.016 132.689 156.327 129.838 156.327C126.988 156.327 124.677 154.016 124.677 151.165C124.677 148.315 126.988 146.004 129.838 146.004C132.689 146.004 135 148.315 135 151.165Z" fill="#DE702C"/>
</mask>
<g mask="url(#mask1_135_79821)">
<rect x="-49.4414" y="50.3438" width="189.259" height="143.837" fill="#042B5E"/>
</g>
</g>
</g>
<defs>
<filter id="filter0_d_135_79821" x="959" y="-482" width="945" height="945" filterUnits="userSpaceOnUse" color-interpolation-filters="sRGB">
<feFlood flood-opacity="0" result="BackgroundImageFix"/>
<feColorMatrix in="SourceAlpha" type="matrix" values="0 0 0 0 0 0 0 0 0 0 0 0 0 0 0 0 0 0 127 0" result="hardAlpha"/>
<feOffset/>
<feGaussianBlur stdDeviation="50"/>
<feComposite in2="hardAlpha" operator="out"/>
<feColorMatrix type="matrix" values="0 0 0 0 0.635925 0 0 0 0 0.814936 0 0 0 0 0.954167 0 0 0 0.2 0"/>
<feBlend mode="normal" in2="BackgroundImageFix" result="effect1_dropShadow_135_79821"/>
<feBlend mode="normal" in="SourceGraphic" in2="effect1_dropShadow_135_79821" result="shape"/>
</filter>
<filter id="filter1_d_135_79821" x="1065.1" y="-375.891" width="732.809" height="732.809" filterUnits="userSpaceOnUse" color-interpolation-filters="sRGB">
<feFlood flood-opacity="0" result="BackgroundImageFix"/>
<feColorMatrix in="SourceAlpha" type="matrix" values="0 0 0 0 0 0 0 0 0 0 0 0 0 0 0 0 0 0 127 0" result="hardAlpha"/>
<feOffset/>
<feGaussianBlur stdDeviation="50"/>
<feComposite in2="hardAlpha" operator="out"/>
<feColorMatrix type="matrix" values="0 0 0 0 0.635925 0 0 0 0 0.814936 0 0 0 0 0.954167 0 0 0 0.2 0"/>
<feBlend mode="normal" in2="BackgroundImageFix" result="effect1_dropShadow_135_79821"/>
<feBlend mode="normal" in="SourceGraphic" in2="effect1_dropShadow_135_79821" result="shape"/>
</filter>
<filter id="filter2_d_135_79821" x="1166.32" y="-274.672" width="530.36" height="530.36" filterUnits="userSpaceOnUse" color-interpolation-filters="sRGB">
<feFlood flood-opacity="0" result="BackgroundImageFix"/>
<feColorMatrix in="SourceAlpha" type="matrix" values="0 0 0 0 0 0 0 0 0 0 0 0 0 0 0 0 0 0 127 0" result="hardAlpha"/>
<feOffset/>
<feGaussianBlur stdDeviation="50"/>
<feComposite in2="hardAlpha" operator="out"/>
<feColorMatrix type="matrix" values="0 0 0 0 0.635925 0 0 0 0 0.814936 0 0 0 0 0.954167 0 0 0 0.2 0"/>
<feBlend mode="normal" in2="BackgroundImageFix" result="effect1_dropShadow_135_79821"/>
<feBlend mode="normal" in="SourceGraphic" in2="effect1_dropShadow_135_79821" result="shape"/>
</filter>
<filter id="filter3_d_135_79821" x="1257.47" y="-183.539" width="348.067" height="348.067" filterUnits="userSpaceOnUse" color-interpolation-filters="sRGB">
<feFlood flood-opacity="0" result="BackgroundImageFix"/>
<feColorMatrix in="SourceAlpha" type="matrix" values="0 0 0 0 0 0 0 0 0 0 0 0 0 0 0 0 0 0 127 0" result="hardAlpha"/>
<feOffset/>
<feGaussianBlur stdDeviation="50"/>
<feComposite in2="hardAlpha" operator="out"/>
<feColorMatrix type="matrix" values="0 0 0 0 0.635925 0 0 0 0 0.814936 0 0 0 0 0.954167 0 0 0 0.2 0"/>
<feBlend mode="normal" in2="BackgroundImageFix" result="effect1_dropShadow_135_79821"/>
<feBlend mode="normal" in="SourceGraphic" in2="effect1_dropShadow_135_79821" result="shape"/>
</filter>
<clipPath id="clip0_135_79821">
<rect width="1440" height="309" fill="white" transform="matrix(-1 0 0 1 1440 0)"/>
</clipPath>
</defs>
</svg>
